  0
SECTION
  2
BLOCKS
  0
ENDSEC
  0
SECTION
  2
ENTITIES
  0
LINE
  8
0
 10
3.67285
 20
-7.13574
 11
3.80371
 21
-7.09668
  0
LINE
  8
0
 10
3.80371
 20
-7.09668
 11
3.9209
 21
-7.03418
  0
LINE
  8
0
 10
3.9209
 20
-7.03418
 11
4.02441
 21
-6.94922
  0
LINE
  8
0
 10
4.02441
 20
-6.94922
 11
7.89746
 21
-3.0752
  0
LINE
  8
0
 10
7.89746
 20
-3.0752
 11
7.98242
 21
-2.97168
  0
LINE
  8
0
 10
7.98242
 20
-2.97168
 11
8.04492
 21
-2.85547
  0
LINE
  8
0
 10
8.04492
 20
-2.85547
 11
8.08398
 21
-2.72363
  0
LINE
  8
0
 10
8.08398
 20
-2.72363
 11
8.09766
 21
-2.58496
  0
LINE
  8
0
 10
8.09766
 20
-2.58496
 11
8.09766
 21
-2.35938
  0
LINE
  8
0
 10
8.09766
 20
-2.35938
 11
7.97559
 21
-2.13086
  0
LINE
  8
0
 10
7.97559
 20
-2.13086
 11
7.66602
 21
-1.11133
  0
LINE
  8
0
 10
7.66602
 20
-1.11133
 11
7.56152
 21
-0.0498047
  0
LINE
  8
0
 10
7.56152
 20
-0.0498047
 11
7.66602
 21
1.01074
  0
LINE
  8
0
 10
7.66602
 20
1.01074
 11
7.97559
 21
2.03125
  0
LINE
  8
0
 10
7.97559
 20
2.03125
 11
8.09766
 21
2.25879
  0
LINE
  8
0
 10
8.09766
 20
2.25879
 11
8.09766
 21
2.48535
  0
LINE
  8
0
 10
8.09766
 20
2.48535
 11
8.08398
 21
2.62402
  0
LINE
  8
0
 10
8.08398
 20
2.62402
 11
8.04492
 21
2.75488
  0
LINE
  8
0
 10
8.04492
 20
2.75488
 11
7.98242
 21
2.87207
  0
LINE
  8
0
 10
7.98242
 20
2.87207
 11
7.89746
 21
2.97461
  0
LINE
  8
0
 10
7.89746
 20
2.97461
 11
4.02441
 21
6.84863
  0
LINE
  8
0
 10
4.02441
 20
6.84863
 11
3.9209
 21
6.93359
  0
LINE
  8
0
 10
3.9209
 20
6.93359
 11
3.80371
 21
6.99707
  0
LINE
  8
0
 10
3.80371
 20
6.99707
 11
3.67285
 21
7.03613
  0
LINE
  8
0
 10
3.67285
 20
7.03613
 11
3.53418
 21
7.0498
  0
LINE
  8
0
 10
3.53418
 20
7.0498
 11
3.51758
 21
7.0498
  0
LINE
  8
0
 10
3.51758
 20
7.0498
 11
3.37891
 21
7.03613
  0
LINE
  8
0
 10
3.37891
 20
7.03613
 11
3.24805
 21
6.99707
  0
LINE
  8
0
 10
3.24805
 20
6.99707
 11
3.13086
 21
6.93359
  0
LINE
  8
0
 10
3.13086
 20
6.93359
 11
3.02832
 21
6.84863
  0
LINE
  8
0
 10
3.02832
 20
6.84863
 11
2.94336
 21
6.74609
  0
LINE
  8
0
 10
2.94336
 20
6.74609
 11
2.87988
 21
6.62891
  0
LINE
  8
0
 10
2.87988
 20
6.62891
 11
2.84082
 21
6.49805
  0
LINE
  8
0
 10
2.84082
 20
6.49805
 11
2.82715
 21
6.35938
  0
LINE
  8
0
 10
2.82715
 20
6.35938
 11
2.82715
 21
3.58789
  0
LINE
  8
0
 10
2.82715
 20
3.58789
 11
2.82129
 21
3.52441
  0
LINE
  8
0
 10
2.82129
 20
3.52441
 11
2.77637
 21
3.37598
  0
LINE
  8
0
 10
2.77637
 20
3.37598
 11
2.69824
 21
3.23145
  0
LINE
  8
0
 10
2.69824
 20
3.23145
 11
2.59375
 21
3.10352
  0
LINE
  8
0
 10
2.59375
 20
3.10352
 11
2.4668
 21
3.00098
  0
LINE
  8
0
 10
2.4668
 20
3.00098
 11
2.32227
 21
2.92285
  0
LINE
  8
0
 10
2.32227
 20
2.92285
 11
2.16504
 21
2.875
  0
LINE
  8
0
 10
2.16504
 20
2.875
 11
2.00195
 21
2.8584
  0
LINE
  8
0
 10
2.00195
 20
2.8584
 11
0.807617
 21
2.8584
  0
LINE
  8
0
 10
0.807617
 20
2.8584
 11
0.644531
 21
2.875
  0
LINE
  8
0
 10
0.644531
 20
2.875
 11
0.55957
 21
2.90137
  0
LINE
  8
0
 10
0.55957
 20
2.90137
 11
0.55957
 21
2.87012
  0
LINE
  8
0
 10
0.55957
 20
2.87012
 11
-0.030014
 21
2.87012
  0
LINE
  8
0
 10
-0.030014
 20
2.87012
 11
-0.030014
 21
-2.95001
  0
LINE
  8
0
 10
-0.030014
 20
-2.95001
 11
1.5
 21
-2.95001
  0
LINE
  8
0
 10
1.5
 20
-2.95001
 11
1.5
 21
-2.95801
  0
LINE
  8
0
 10
1.5
 20
-2.95801
 11
2.00195
 21
-2.95801
  0
LINE
  8
0
 10
2.00195
 20
-2.95801
 11
2.16504
 21
-2.97461
  0
LINE
  8
0
 10
2.16504
 20
-2.97461
 11
2.32227
 21
-3.02344
  0
LINE
  8
0
 10
2.32227
 20
-3.02344
 11
2.4668
 21
-3.10059
  0
LINE
  8
0
 10
2.4668
 20
-3.10059
 11
2.59375
 21
-3.2041
  0
LINE
  8
0
 10
2.59375
 20
-3.2041
 11
2.69824
 21
-3.33105
  0
LINE
  8
0
 10
2.69824
 20
-3.33105
 11
2.77637
 21
-3.47559
  0
LINE
  8
0
 10
2.77637
 20
-3.47559
 11
2.82129
 21
-3.62402
  0
LINE
  8
0
 10
2.82129
 20
-3.62402
 11
2.82715
 21
-3.68848
  0
LINE
  8
0
 10
2.82715
 20
-3.68848
 11
2.82715
 21
-6.45898
  0
LINE
  8
0
 10
2.82715
 20
-6.45898
 11
2.84082
 21
-6.59766
  0
LINE
  8
0
 10
2.84082
 20
-6.59766
 11
2.87988
 21
-6.72852
  0
LINE
  8
0
 10
2.87988
 20
-6.72852
 11
2.94336
 21
-6.8457
  0
LINE
  8
0
 10
2.94336
 20
-6.8457
 11
3.02832
 21
-6.94922
  0
LINE
  8
0
 10
3.02832
 20
-6.94922
 11
3.13086
 21
-7.03418
  0
LINE
  8
0
 10
3.13086
 20
-7.03418
 11
3.24805
 21
-7.09668
  0
LINE
  8
0
 10
3.24805
 20
-7.09668
 11
3.37891
 21
-7.13574
  0
LINE
  8
0
 10
3.37891
 20
-7.13574
 11
3.51758
 21
-7.15039
  0
LINE
  8
0
 10
3.51758
 20
-7.15039
 11
3.53418
 21
-7.15039
  0
LINE
  8
0
 10
3.53418
 20
-7.15039
 11
3.67285
 21
-7.13574
  0
ENDSEC
  0
SECTION
  2
OBJECTS
  0
DICTIONARY
  0
ENDSEC
  0
EOF
