  0
SECTION
  2
BLOCKS
  0
ENDSEC
  0
SECTION
  2
ENTITIES
  0
LINE
  8
0
 10
18.41
 20
3.73882
 11
18.408
 21
3.75798
  0
LINE
  8
0
 10
18.408
 20
3.75798
 11
18.408
 21
4.95198
  0
LINE
  8
0
 10
18.408
 20
4.95198
 11
18.41
 21
4.97115
  0
LINE
  8
0
 10
18.41
 20
4.97115
 11
18.41
 21
4.99998
  0
LINE
  8
0
 10
18.41
 20
4.99998
 11
18.413
 21
4.99998
  0
LINE
  8
0
 10
18.413
 20
4.99998
 11
18.425
 21
5.11497
  0
LINE
  8
0
 10
18.425
 20
5.11497
 11
18.473
 21
5.27197
  0
LINE
  8
0
 10
18.473
 20
5.27197
 11
18.551
 21
5.41698
  0
LINE
  8
0
 10
18.551
 20
5.41698
 11
18.654
 21
5.54398
  0
LINE
  8
0
 10
18.654
 20
5.54398
 11
18.781
 21
5.64798
  0
LINE
  8
0
 10
18.781
 20
5.64798
 11
18.926
 21
5.72598
  0
LINE
  8
0
 10
18.926
 20
5.72598
 11
19.074
 21
5.77098
  0
LINE
  8
0
 10
19.074
 20
5.77098
 11
19.138
 21
5.77698
  0
LINE
  8
0
 10
19.138
 20
5.77698
 11
21.909
 21
5.77698
  0
LINE
  8
0
 10
21.909
 20
5.77698
 11
22.048
 21
5.79097
  0
LINE
  8
0
 10
22.048
 20
5.79097
 11
22.179
 21
5.82997
  0
LINE
  8
0
 10
22.179
 20
5.82997
 11
22.296
 21
5.89297
  0
LINE
  8
0
 10
22.296
 20
5.89297
 11
22.399
 21
5.97798
  0
LINE
  8
0
 10
22.399
 20
5.97798
 11
22.484
 21
6.08098
  0
LINE
  8
0
 10
22.484
 20
6.08098
 11
22.547
 21
6.19798
  0
LINE
  8
0
 10
22.547
 20
6.19798
 11
22.586
 21
6.32898
  0
LINE
  8
0
 10
22.586
 20
6.32898
 11
22.6
 21
6.46797
  0
LINE
  8
0
 10
22.6
 20
6.46797
 11
22.6
 21
6.48398
  0
LINE
  8
0
 10
22.6
 20
6.48398
 11
22.586
 21
6.62297
  0
LINE
  8
0
 10
22.586
 20
6.62297
 11
22.547
 21
6.75398
  0
LINE
  8
0
 10
22.547
 20
6.75398
 11
22.484
 21
6.87097
  0
LINE
  8
0
 10
22.484
 20
6.87097
 11
22.399
 21
6.97398
  0
LINE
  8
0
 10
22.399
 20
6.97398
 11
18.525
 21
10.847
  0
LINE
  8
0
 10
18.525
 20
10.847
 11
18.422
 21
10.932
  0
LINE
  8
0
 10
18.422
 20
10.932
 11
18.305
 21
10.995
  0
LINE
  8
0
 10
18.305
 20
10.995
 11
18.174
 21
11.034
  0
LINE
  8
0
 10
18.174
 20
11.034
 11
18.035
 21
11.048
  0
LINE
  8
0
 10
18.035
 20
11.048
 11
17.809
 21
11.048
  0
LINE
  8
0
 10
17.809
 20
11.048
 11
17.581
 21
10.926
  0
LINE
  8
0
 10
17.581
 20
10.926
 11
16.561
 21
10.616
  0
LINE
  8
0
 10
16.561
 20
10.616
 11
15.5
 21
10.512
  0
LINE
  8
0
 10
15.5
 20
10.512
 11
14.439
 21
10.616
  0
LINE
  8
0
 10
14.439
 20
10.616
 11
13.419
 21
10.926
  0
LINE
  8
0
 10
13.419
 20
10.926
 11
13.191
 21
11.048
  0
LINE
  8
0
 10
13.191
 20
11.048
 11
12.965
 21
11.048
  0
LINE
  8
0
 10
12.965
 20
11.048
 11
12.826
 21
11.034
  0
LINE
  8
0
 10
12.826
 20
11.034
 11
12.695
 21
10.995
  0
LINE
  8
0
 10
12.695
 20
10.995
 11
12.578
 21
10.932
  0
LINE
  8
0
 10
12.578
 20
10.932
 11
12.475
 21
10.847
  0
LINE
  8
0
 10
12.475
 20
10.847
 11
8.60101
 21
6.97398
  0
LINE
  8
0
 10
8.60101
 20
6.97398
 11
8.51601
 21
6.87097
  0
LINE
  8
0
 10
8.51601
 20
6.87097
 11
8.453
 21
6.75398
  0
LINE
  8
0
 10
8.453
 20
6.75398
 11
8.414
 21
6.62297
  0
LINE
  8
0
 10
8.414
 20
6.62297
 11
8.40001
 21
6.48398
  0
LINE
  8
0
 10
8.40001
 20
6.48398
 11
8.40001
 21
6.46797
  0
LINE
  8
0
 10
8.40001
 20
6.46797
 11
8.414
 21
6.32898
  0
LINE
  8
0
 10
8.414
 20
6.32898
 11
8.453
 21
6.19798
  0
LINE
  8
0
 10
8.453
 20
6.19798
 11
8.51601
 21
6.08098
  0
LINE
  8
0
 10
8.51601
 20
6.08098
 11
8.60101
 21
5.97798
  0
LINE
  8
0
 10
8.60101
 20
5.97798
 11
8.70401
 21
5.89297
  0
LINE
  8
0
 10
8.70401
 20
5.89297
 11
8.82101
 21
5.82997
  0
LINE
  8
0
 10
8.82101
 20
5.82997
 11
8.95201
 21
5.79097
  0
LINE
  8
0
 10
8.95201
 20
5.79097
 11
9.091
 21
5.77698
  0
LINE
  8
0
 10
9.091
 20
5.77698
 11
11.862
 21
5.77698
  0
LINE
  8
0
 10
11.862
 20
5.77698
 11
11.926
 21
5.77098
  0
LINE
  8
0
 10
11.926
 20
5.77098
 11
12.074
 21
5.72598
  0
LINE
  8
0
 10
12.074
 20
5.72598
 11
12.219
 21
5.64798
  0
LINE
  8
0
 10
12.219
 20
5.64798
 11
12.346
 21
5.54398
  0
LINE
  8
0
 10
12.346
 20
5.54398
 11
12.449
 21
5.41698
  0
LINE
  8
0
 10
12.449
 20
5.41698
 11
12.527
 21
5.27197
  0
LINE
  8
0
 10
12.527
 20
5.27197
 11
12.575
 21
5.11497
  0
LINE
  8
0
 10
12.575
 20
5.11497
 11
12.592
 21
4.95198
  0
LINE
  8
0
 10
12.592
 20
4.95198
 11
12.592
 21
3.75798
  0
LINE
  8
0
 10
12.592
 20
3.75798
 11
12.575
 21
3.59497
  0
LINE
  8
0
 10
12.575
 20
3.59497
 11
12.527
 21
3.43797
  0
LINE
  8
0
 10
12.527
 20
3.43797
 11
12.449
 21
3.29298
  0
LINE
  8
0
 10
12.449
 20
3.29298
 11
12.346
 21
3.16597
  0
LINE
  8
0
 10
12.346
 20
3.16597
 11
12.219
 21
3.06198
  0
LINE
  8
0
 10
12.219
 20
3.06198
 11
12.074
 21
2.98398
  0
LINE
  8
0
 10
12.074
 20
2.98398
 11
11.916
 21
2.93597
  0
LINE
  8
0
 10
11.916
 20
2.93597
 11
11.852
 21
2.92998
  0
LINE
  8
0
 10
11.852
 20
2.92998
 11
11.132
 21
2.92998
  0
LINE
  8
0
 10
11.132
 20
2.92998
 11
11.119
 21
2.92598
  0
LINE
  8
0
 10
11.119
 20
2.92598
 11
11.055
 21
2.91998
  0
LINE
  8
0
 10
11.055
 20
2.91998
 11
4.07001
 21
2.91998
  0
LINE
  8
0
 10
4.07001
 20
2.91998
 11
3.75801
 21
2.94998
  0
LINE
  8
0
 10
3.75801
 20
2.94998
 11
3.45801
 21
3.04198
  0
LINE
  8
0
 10
3.45801
 20
3.04198
 11
3.18102
 21
3.18997
  0
LINE
  8
0
 10
3.18102
 20
3.18997
 11
2.93901
 21
3.38898
  0
LINE
  8
0
 10
2.93901
 20
3.38898
 11
2.74001
 21
3.63098
  0
LINE
  8
0
 10
2.74001
 20
3.63098
 11
2.59201
 21
3.90797
  0
LINE
  8
0
 10
2.59201
 20
3.90797
 11
2.5
 21
4.20799
  0
LINE
  8
0
 10
2.5
 20
4.20799
 11
2.47
 21
4.51999
  0
LINE
  8
0
 10
2.47
 20
4.51999
 11
2.47
 21
11.505
  0
LINE
  8
0
 10
2.47
 20
11.505
 11
2.47601
 21
11.569
  0
LINE
  8
0
 10
2.47601
 20
11.569
 11
2.48001
 21
11.582
  0
LINE
  8
0
 10
2.48001
 20
11.582
 11
2.48001
 21
12.302
  0
LINE
  8
0
 10
2.48001
 20
12.302
 11
2.48601
 21
12.366
  0
LINE
  8
0
 10
2.48601
 20
12.366
 11
2.53401
 21
12.524
  0
LINE
  8
0
 10
2.53401
 20
12.524
 11
2.61201
 21
12.669
  0
LINE
  8
0
 10
2.61201
 20
12.669
 11
2.716
 21
12.796
  0
LINE
  8
0
 10
2.716
 20
12.796
 11
2.843
 21
12.899
  0
LINE
  8
0
 10
2.843
 20
12.899
 11
2.98801
 21
12.977
  0
LINE
  8
0
 10
2.98801
 20
12.977
 11
3.145
 21
13.025
  0
LINE
  8
0
 10
3.145
 20
13.025
 11
3.30801
 21
13.042
  0
LINE
  8
0
 10
3.30801
 20
13.042
 11
4.50201
 21
13.042
  0
LINE
  8
0
 10
4.50201
 20
13.042
 11
4.66501
 21
13.025
  0
LINE
  8
0
 10
4.66501
 20
13.025
 11
4.82201
 21
12.977
  0
LINE
  8
0
 10
4.82201
 20
12.977
 11
4.96701
 21
12.899
  0
LINE
  8
0
 10
4.96701
 20
12.899
 11
5.09401
 21
12.796
  0
LINE
  8
0
 10
5.09401
 20
12.796
 11
5.19801
 21
12.669
  0
LINE
  8
0
 10
5.19801
 20
12.669
 11
5.276
 21
12.524
  0
LINE
  8
0
 10
5.276
 20
12.524
 11
5.32101
 21
12.376
  0
LINE
  8
0
 10
5.32101
 20
12.376
 11
5.32701
 21
12.312
  0
LINE
  8
0
 10
5.32701
 20
12.312
 11
5.32701
 21
9.54099
  0
LINE
  8
0
 10
5.32701
 20
9.54099
 11
5.341
 21
9.40199
  0
LINE
  8
0
 10
5.341
 20
9.40199
 11
5.38
 21
9.271
  0
LINE
  8
0
 10
5.38
 20
9.271
 11
5.44301
 21
9.15399
  0
LINE
  8
0
 10
5.44301
 20
9.15399
 11
5.52802
 21
9.05099
  0
LINE
  8
0
 10
5.52802
 20
9.05099
 11
5.63101
 21
8.96599
  0
LINE
  8
0
 10
5.63101
 20
8.96599
 11
5.748
 21
8.903
  0
LINE
  8
0
 10
5.748
 20
8.903
 11
5.87901
 21
8.864
  0
LINE
  8
0
 10
5.87901
 20
8.864
 11
6.01801
 21
8.84999
  0
LINE
  8
0
 10
6.01801
 20
8.84999
 11
6.03401
 21
8.84999
  0
LINE
  8
0
 10
6.03401
 20
8.84999
 11
6.173
 21
8.864
  0
LINE
  8
0
 10
6.173
 20
8.864
 11
6.304
 21
8.903
  0
LINE
  8
0
 10
6.304
 20
8.903
 11
6.42101
 21
8.96599
  0
LINE
  8
0
 10
6.42101
 20
8.96599
 11
6.524
 21
9.05099
  0
LINE
  8
0
 10
6.524
 20
9.05099
 11
10.397
 21
12.925
  0
LINE
  8
0
 10
10.397
 20
12.925
 11
10.482
 21
13.028
  0
LINE
  8
0
 10
10.482
 20
13.028
 11
10.545
 21
13.145
  0
LINE
  8
0
 10
10.545
 20
13.145
 11
10.584
 21
13.276
  0
LINE
  8
0
 10
10.584
 20
13.276
 11
10.598
 21
13.415
  0
LINE
  8
0
 10
10.598
 20
13.415
 11
10.598
 21
13.641
  0
LINE
  8
0
 10
10.598
 20
13.641
 11
10.476
 21
13.869
  0
LINE
  8
0
 10
10.476
 20
13.869
 11
10.166
 21
14.889
  0
LINE
  8
0
 10
10.166
 20
14.889
 11
10.062
 21
15.95
  0
LINE
  8
0
 10
10.062
 20
15.95
 11
10.166
 21
17.011
  0
LINE
  8
0
 10
10.166
 20
17.011
 11
10.476
 21
18.031
  0
LINE
  8
0
 10
10.476
 20
18.031
 11
10.598
 21
18.259
  0
LINE
  8
0
 10
10.598
 20
18.259
 11
10.598
 21
18.485
  0
LINE
  8
0
 10
10.598
 20
18.485
 11
10.584
 21
18.624
  0
LINE
  8
0
 10
10.584
 20
18.624
 11
10.545
 21
18.755
  0
LINE
  8
0
 10
10.545
 20
18.755
 11
10.482
 21
18.872
  0
LINE
  8
0
 10
10.482
 20
18.872
 11
10.397
 21
18.975
  0
LINE
  8
0
 10
10.397
 20
18.975
 11
6.524
 21
22.849
  0
LINE
  8
0
 10
6.524
 20
22.849
 11
6.42101
 21
22.934
  0
LINE
  8
0
 10
6.42101
 20
22.934
 11
6.304
 21
22.997
  0
LINE
  8
0
 10
6.304
 20
22.997
 11
6.173
 21
23.036
  0
LINE
  8
0
 10
6.173
 20
23.036
 11
6.03401
 21
23.05
  0
LINE
  8
0
 10
6.03401
 20
23.05
 11
6.01801
 21
23.05
  0
LINE
  8
0
 10
6.01801
 20
23.05
 11
5.87901
 21
23.036
  0
LINE
  8
0
 10
5.87901
 20
23.036
 11
5.748
 21
22.997
  0
LINE
  8
0
 10
5.748
 20
22.997
 11
5.63101
 21
22.934
  0
LINE
  8
0
 10
5.63101
 20
22.934
 11
5.52802
 21
22.849
  0
LINE
  8
0
 10
5.52802
 20
22.849
 11
5.44301
 21
22.746
  0
LINE
  8
0
 10
5.44301
 20
22.746
 11
5.38
 21
22.629
  0
LINE
  8
0
 10
5.38
 20
22.629
 11
5.341
 21
22.498
  0
LINE
  8
0
 10
5.341
 20
22.498
 11
5.32701
 21
22.359
  0
LINE
  8
0
 10
5.32701
 20
22.359
 11
5.32701
 21
19.588
  0
LINE
  8
0
 10
5.32701
 20
19.588
 11
5.32101
 21
19.524
  0
LINE
  8
0
 10
5.32101
 20
19.524
 11
5.276
 21
19.376
  0
LINE
  8
0
 10
5.276
 20
19.376
 11
5.19801
 21
19.231
  0
LINE
  8
0
 10
5.19801
 20
19.231
 11
5.09401
 21
19.104
  0
LINE
  8
0
 10
5.09401
 20
19.104
 11
4.96701
 21
19.001
  0
LINE
  8
0
 10
4.96701
 20
19.001
 11
4.82201
 21
18.923
  0
LINE
  8
0
 10
4.82201
 20
18.923
 11
4.66501
 21
18.875
  0
LINE
  8
0
 10
4.66501
 20
18.875
 11
4.50201
 21
18.858
  0
LINE
  8
0
 10
4.50201
 20
18.858
 11
3.30801
 21
18.858
  0
LINE
  8
0
 10
3.30801
 20
18.858
 11
3.145
 21
18.875
  0
LINE
  8
0
 10
3.145
 20
18.875
 11
3.06001
 21
18.9009
  0
LINE
  8
0
 10
3.06001
 20
18.9009
 11
3.06001
 21
18.87
  0
LINE
  8
0
 10
3.06001
 20
18.87
 11
-0.0199738
 21
18.87
  0
LINE
  8
0
 10
-0.0199738
 20
18.87
 11
-0.0199738
 21
0.449997
  0
LINE
  8
0
 10
-0.0199738
 20
0.449997
 11
0
 21
0.449997
  0
LINE
  8
0
 10
0
 20
0.449997
 11
0
 21
0
  0
LINE
  8
0
 10
0
 20
0
 11
18.41
 21
0
  0
LINE
  8
0
 10
18.41
 20
0
 11
18.41
 21
3.73882
  0
ENDSEC
  0
SECTION
  2
OBJECTS
  0
DICTIONARY
  0
ENDSEC
  0
EOF
