<?xml version="1.0" standalone="no"?>
<!DOCTYPE svg PUBLIC "-//W3C//DTD SVG 1.1//EN" "http://www.w3.org/Graphics/SVG/1.1/DTD/svg11.dtd">
<svg width="30" height="30" viewBox="-15 -15 30 30" xmlns="http://www.w3.org/2000/svg" version="1.1">
<title>OpenSCAD Model</title>
<path d="
M 15,-15 L -15,-15 L -15,15 L 15,15 z
M -13,13 L -13,-13 L 13,-13 L 13,13 z
M 0.113022,-6.20354 L 0.225586,-6.21419 L 0.33728,-6.23187 L 0.447632,-6.25655 L 0.556229,-6.28809 L 0.662613,-6.3264
 L 0.766388,-6.37131 L 0.867142,-6.42264 L 0.964478,-6.48021 L 1.058,-6.54376 L 1.14735,-6.61307 L 1.23218,-6.68785
 L 1.31213,-6.76781 L 1.38692,-6.85263 L 1.45622,-6.94199 L 1.51978,-7.03551 L 1.57735,-7.13284 L 1.62868,-7.2336
 L 1.67358,-7.33737 L 1.7119,-7.44376 L 1.74344,-7.55235 L 1.76811,-7.6627 L 1.7858,-7.7744 L 1.79645,-7.88696
 L 1.79999,-8 L 1.79645,-8.11302 L 1.7858,-8.22559 L 1.76811,-8.33728 L 1.74344,-8.44763 L 1.7119,-8.55623
 L 1.67358,-8.66261 L 1.62868,-8.76639 L 1.57735,-8.86714 L 1.51978,-8.96448 L 1.45622,-9.058 L 1.38692,-9.14735
 L 1.31213,-9.23218 L 1.23218,-9.31213 L 1.14735,-9.38692 L 1.058,-9.45622 L 0.964478,-9.51978 L 0.867142,-9.57735
 L 0.766388,-9.62868 L 0.662613,-9.67358 L 0.556229,-9.7119 L 0.447632,-9.74344 L 0.33728,-9.76811 L 0.225586,-9.7858
 L 0.113022,-9.79645 L 0,-9.79999 L -0.113022,-9.79645 L -0.225586,-9.7858 L -0.33728,-9.76811 L -0.447632,-9.74344
 L -0.556229,-9.7119 L -0.662613,-9.67358 L -0.766388,-9.62868 L -0.867142,-9.57735 L -0.964478,-9.51978 L -1.058,-9.45622
 L -1.14735,-9.38692 L -1.23218,-9.31213 L -1.31213,-9.23218 L -1.38692,-9.14735 L -1.45622,-9.058 L -1.51978,-8.96448
 L -1.57735,-8.86714 L -1.62868,-8.76639 L -1.67358,-8.66261 L -1.7119,-8.55623 L -1.74344,-8.44763 L -1.76811,-8.33728
 L -1.7858,-8.22559 L -1.79645,-8.11302 L -1.79999,-8 L -1.79645,-7.88696 L -1.7858,-7.7744 L -1.76811,-7.6627
 L -1.74344,-7.55235 L -1.7119,-7.44376 L -1.67358,-7.33737 L -1.62868,-7.2336 L -1.57735,-7.13284 L -1.51978,-7.03551
 L -1.45622,-6.94199 L -1.38692,-6.85263 L -1.31213,-6.76781 L -1.23218,-6.68785 L -1.14735,-6.61307 L -1.058,-6.54376
 L -0.964478,-6.48021 L -0.867142,-6.42264 L -0.766388,-6.37131 L -0.662613,-6.3264 L -0.556229,-6.28809 L -0.447632,-6.25655
 L -0.33728,-6.23187 L -0.225586,-6.21419 L -0.113022,-6.20354 L 0,-6.2 z
M 8.11302,1.79645 L 8.22559,1.7858 L 8.33728,1.76811 L 8.44763,1.74344 L 8.55623,1.7119 L 8.66261,1.67358
 L 8.76639,1.62868 L 8.86714,1.57735 L 8.96448,1.51978 L 9.058,1.45622 L 9.14735,1.38692 L 9.23218,1.31213
 L 9.31213,1.23218 L 9.38692,1.14735 L 9.45622,1.058 L 9.51978,0.964478 L 9.57735,0.867142 L 9.62868,0.766388
 L 9.67358,0.662613 L 9.7119,0.556229 L 9.74344,0.447632 L 9.76811,0.33728 L 9.7858,0.225586 L 9.79645,0.113022
 L 9.79999,-0 L 9.79645,-0.113022 L 9.7858,-0.225586 L 9.76811,-0.33728 L 9.74344,-0.447632 L 9.7119,-0.556229
 L 9.67358,-0.662613 L 9.62868,-0.766388 L 9.57735,-0.867142 L 9.51978,-0.964478 L 9.45622,-1.058 L 9.38692,-1.14735
 L 9.31213,-1.23218 L 9.23218,-1.31213 L 9.14735,-1.38692 L 9.058,-1.45622 L 8.96448,-1.51978 L 8.86714,-1.57735
 L 8.76639,-1.62868 L 8.66261,-1.67358 L 8.55623,-1.7119 L 8.44763,-1.74344 L 8.33728,-1.76811 L 8.22559,-1.7858
 L 8.11302,-1.79645 L 8,-1.79999 L 7.88696,-1.79645 L 7.7744,-1.7858 L 7.6627,-1.76811 L 7.55235,-1.74344
 L 7.44376,-1.7119 L 7.33737,-1.67358 L 7.2336,-1.62868 L 7.13284,-1.57735 L 7.03551,-1.51978 L 6.94199,-1.45622
 L 6.85263,-1.38692 L 6.76781,-1.31213 L 6.68785,-1.23218 L 6.61307,-1.14735 L 6.54376,-1.058 L 6.48021,-0.964478
 L 6.42264,-0.867142 L 6.37131,-0.766388 L 6.3264,-0.662613 L 6.28809,-0.556229 L 6.25655,-0.447632 L 6.23187,-0.33728
 L 6.21419,-0.225586 L 6.20354,-0.113022 L 6.2,-0 L 6.20354,0.113022 L 6.21419,0.225586 L 6.23187,0.33728
 L 6.25655,0.447632 L 6.28809,0.556229 L 6.3264,0.662613 L 6.37131,0.766388 L 6.42264,0.867142 L 6.48021,0.964478
 L 6.54376,1.058 L 6.61307,1.14735 L 6.68785,1.23218 L 6.76781,1.31213 L 6.85263,1.38692 L 6.94199,1.45622
 L 7.03551,1.51978 L 7.13284,1.57735 L 7.2336,1.62868 L 7.33737,1.67358 L 7.44376,1.7119 L 7.55235,1.74344
 L 7.6627,1.76811 L 7.7744,1.7858 L 7.88696,1.79645 L 8,1.79999 z
M -7.88696,1.79645 L -7.7744,1.7858 L -7.6627,1.76811 L -7.55235,1.74344 L -7.44376,1.7119 L -7.33737,1.67358
 L -7.2336,1.62868 L -7.13284,1.57735 L -7.03551,1.51978 L -6.94199,1.45622 L -6.85263,1.38692 L -6.76781,1.31213
 L -6.68785,1.23218 L -6.61307,1.14735 L -6.54376,1.058 L -6.48021,0.964478 L -6.42264,0.867142 L -6.37131,0.766388
 L -6.3264,0.662613 L -6.28809,0.556229 L -6.25655,0.447632 L -6.23187,0.33728 L -6.21419,0.225586 L -6.20354,0.113022
 L -6.2,-0 L -6.20354,-0.113022 L -6.21419,-0.225586 L -6.23187,-0.33728 L -6.25655,-0.447632 L -6.28809,-0.556229
 L -6.3264,-0.662613 L -6.37131,-0.766388 L -6.42264,-0.867142 L -6.48021,-0.964478 L -6.54376,-1.058 L -6.61307,-1.14735
 L -6.68785,-1.23218 L -6.76781,-1.31213 L -6.85263,-1.38692 L -6.94199,-1.45622 L -7.03551,-1.51978 L -7.13284,-1.57735
 L -7.2336,-1.62868 L -7.33737,-1.67358 L -7.44376,-1.7119 L -7.55235,-1.74344 L -7.6627,-1.76811 L -7.7744,-1.7858
 L -7.88696,-1.79645 L -8,-1.79999 L -8.11302,-1.79645 L -8.22559,-1.7858 L -8.33728,-1.76811 L -8.44763,-1.74344
 L -8.55623,-1.7119 L -8.66261,-1.67358 L -8.76639,-1.62868 L -8.86714,-1.57735 L -8.96448,-1.51978 L -9.058,-1.45622
 L -9.14735,-1.38692 L -9.23218,-1.31213 L -9.31213,-1.23218 L -9.38692,-1.14735 L -9.45622,-1.058 L -9.51978,-0.964478
 L -9.57735,-0.867142 L -9.62868,-0.766388 L -9.67358,-0.662613 L -9.7119,-0.556229 L -9.74344,-0.447632 L -9.76811,-0.33728
 L -9.7858,-0.225586 L -9.79645,-0.113022 L -9.79999,-0 L -9.79645,0.113022 L -9.7858,0.225586 L -9.76811,0.33728
 L -9.74344,0.447632 L -9.7119,0.556229 L -9.67358,0.662613 L -9.62868,0.766388 L -9.57735,0.867142 L -9.51978,0.964478
 L -9.45622,1.058 L -9.38692,1.14735 L -9.31213,1.23218 L -9.23218,1.31213 L -9.14735,1.38692 L -9.058,1.45622
 L -8.96448,1.51978 L -8.86714,1.57735 L -8.76639,1.62868 L -8.66261,1.67358 L -8.55623,1.7119 L -8.44763,1.74344
 L -8.33728,1.76811 L -8.22559,1.7858 L -8.11302,1.79645 L -8,1.79999 z
M 0.113022,9.79645 L 0.225586,9.7858 L 0.33728,9.76811 L 0.447632,9.74344 L 0.556229,9.7119 L 0.662613,9.67358
 L 0.766388,9.62868 L 0.867142,9.57735 L 0.964478,9.51978 L 1.058,9.45622 L 1.14735,9.38692 L 1.23218,9.31213
 L 1.31213,9.23218 L 1.38692,9.14735 L 1.45622,9.058 L 1.51978,8.96448 L 1.57735,8.86714 L 1.62868,8.76639
 L 1.67358,8.66261 L 1.7119,8.55623 L 1.74344,8.44763 L 1.76811,8.33728 L 1.7858,8.22559 L 1.79645,8.11302
 L 1.79999,8 L 1.79645,7.88696 L 1.7858,7.7744 L 1.76811,7.6627 L 1.74344,7.55235 L 1.7119,7.44376
 L 1.67358,7.33737 L 1.62868,7.2336 L 1.57735,7.13284 L 1.51978,7.03551 L 1.45622,6.94199 L 1.38692,6.85263
 L 1.31213,6.76781 L 1.23218,6.68785 L 1.14735,6.61307 L 1.058,6.54376 L 0.964478,6.48021 L 0.867142,6.42264
 L 0.766388,6.37131 L 0.662613,6.3264 L 0.556229,6.28809 L 0.447632,6.25655 L 0.33728,6.23187 L 0.225586,6.21419
 L 0.113022,6.20354 L 0,6.2 L -0.113022,6.20354 L -0.225586,6.21419 L -0.33728,6.23187 L -0.447632,6.25655
 L -0.556229,6.28809 L -0.662613,6.3264 L -0.766388,6.37131 L -0.867142,6.42264 L -0.964478,6.48021 L -1.058,6.54376
 L -1.14735,6.61307 L -1.23218,6.68785 L -1.31213,6.76781 L -1.38692,6.85263 L -1.45622,6.94199 L -1.51978,7.03551
 L -1.57735,7.13284 L -1.62868,7.2336 L -1.67358,7.33737 L -1.7119,7.44376 L -1.74344,7.55235 L -1.76811,7.6627
 L -1.7858,7.7744 L -1.79645,7.88696 L -1.79999,8 L -1.79645,8.11302 L -1.7858,8.22559 L -1.76811,8.33728
 L -1.74344,8.44763 L -1.7119,8.55623 L -1.67358,8.66261 L -1.62868,8.76639 L -1.57735,8.86714 L -1.51978,8.96448
 L -1.45622,9.058 L -1.38692,9.14735 L -1.31213,9.23218 L -1.23218,9.31213 L -1.14735,9.38692 L -1.058,9.45622
 L -0.964478,9.51978 L -0.867142,9.57735 L -0.766388,9.62868 L -0.662613,9.67358 L -0.556229,9.7119 L -0.447632,9.74344
 L -0.33728,9.76811 L -0.225586,9.7858 L -0.113022,9.79645 L 0,9.79999 z
" stroke="black" fill="lightgray" stroke-width="0.5"/></svg>
